<svg xmlns="http://www.w3.org/2000/svg" viewBox="0 0 1520.45 1654.94"><defs><style>.cls-1{font-size:1089.08px;font-family:Beyonders;}.cls-1,.cls-2{fill:#8254a2;}.cls-3{fill:#f26522;}</style></defs><g id="Layer_2" data-name="Layer 2"><g id="Layer_2-2" data-name="Layer 2"><text class="cls-1" transform="translate(0 1361.36)">C</text><path class="cls-2" d="M522.29,1368.6Q285.82,1311.42,172,1465.39c-70.07,93.84,40.87,161.3,163.49,181.82,111,14.67,251.08,8.8,414.58-20.52,157.65-29.33,286.11-70.39,373.7-126.11,93.42-55.72,105.1-105.58,40.87-152.5C1071.16,1292.35,954.39,1471.25,522.29,1368.6Z"/><path class="cls-3" d="M1317.71,1450.37q-23.2,61.8,89.38,61.47c68.66,0,107.24-35.77,113.05-66.31,2.58-27-10.78-57-41.69-88.32-30.53-30-67.1-51.64-110.94-61.78-44.23-11.44-79-5.76-106.71,16.23C1229.06,1341.56,1358.82,1337.75,1317.71,1450.37Z"/></g></g></svg>