<svg xmlns="http://www.w3.org/2000/svg" viewBox="0 0 4723.17 1654.94"><defs><style>.cls-1{font-size:1089.08px;font-family:Beyonders;}.cls-1,.cls-2,.cls-4,.cls-8{fill:#8254a2;}.cls-3,.cls-7{fill:#f26522;}.cls-4{font-size:1027.75px;}.cls-4,.cls-7{font-family:AzonixRegular, Azonix;}.cls-5{letter-spacing:-0.04em;}.cls-6{letter-spacing:0em;}.cls-7{font-size:676.96px;letter-spacing:-0.08em;}.cls-8{letter-spacing:0em;}.cls-9{letter-spacing:0em;}</style></defs><g id="Layer_2" data-name="Layer 2"><g id="Layer_2-2" data-name="Layer 2"><text class="cls-1" transform="translate(0 1361.36)">C</text><path class="cls-2" d="M522.29,1368.6Q285.82,1311.42,172,1465.39c-70.07,93.84,40.87,161.3,163.49,181.82,111,14.67,251.08,8.8,414.58-20.52,157.65-29.33,286.11-70.39,373.7-126.11,93.42-55.72,105.1-105.58,40.87-152.5C1071.16,1292.35,954.39,1471.25,522.29,1368.6Z"/><path class="cls-3" d="M1317.71,1450.37q-23.2,61.8,89.38,61.47c68.66,0,107.24-35.77,113.05-66.31,2.58-27-10.78-57-41.69-88.32-30.53-30-67.1-51.64-110.94-61.78-44.23-11.44-79-5.76-106.71,16.23C1229.06,1341.56,1358.82,1337.75,1317.71,1450.37Z"/><text class="cls-4" transform="translate(1541.28 949.58)"><tspan class="cls-5">C</tspan><tspan class="cls-3" x="766.71" y="0">O</tspan><tspan class="cls-6" x="1537.52" y="0">DE</tspan></text><text class="cls-7" transform="translate(2746.96 1452.54)">L<tspan class="cls-8" x="406.17" y="0">oo</tspan><tspan class="cls-9" x="1424.33" y="0">m</tspan></text></g></g></svg>